<?xml version="1.0" encoding="UTF-8"?>
<svg xmlns="http://www.w3.org/2000/svg" xmlns:xlink="http://www.w3.org/1999/xlink" xmlns:svgjs="http://svgjs.com/svgjs" version="1.1" width="512" height="512" x="0" y="0" viewBox="0 0 16.933333 16.933334" style="enable-background:new 0 0 512 512" xml:space="preserve" class="">
  <g>
    <g xmlns="http://www.w3.org/2000/svg" id="layer1" transform="translate(0 -280.067)">
      <path id="circle5410" d="m16.139593 292.50205a1.5875094 1.5875094 0 0 1 -1.587509 1.58751 1.5875094 1.5875094 0 0 1 -1.587509-1.58751 1.5875094 1.5875094 0 0 1 1.587509-1.58751 1.5875094 1.5875094 0 0 1 1.587509 1.58751z" fill="#dbe9ee" data-original="#dbe9ee" style=""/>
      <path id="circle5412" d="m15.08126 292.50205a.52917599.52917599 0 0 1 -.529176.52918.52917599.52917599 0 0 1 -.529176-.52918.52917599.52917599 0 0 1 .529176-.52918.52917599.52917599 0 0 1 .529176.52918z" fill="#c8d4d9" data-original="#c8d4d9" style=""/>
      <path id="path5414" d="m.79375134 284.82913v1.05833c0 2.1656 1.61101086 3.93779 3.70416676 4.19716v1.09451h1.0583333v-1.09451c2.0931532-.25937 3.7041666-2.03156 3.7041666-4.19716v-1.05833h-1.058333v1.05833c0 1.75895-1.4160502 3.175-3.1750002 3.175-1.7589501 0-3.1750002-1.41605-3.1750002-3.175v-1.05833z" fill="#0a7d53" data-original="#33b9ef" style="" class=""/>
      <path id="circle5422" d="m3.4395935 281.38955a.52917599.52917599 0 0 1 -.529176.52917.52917599.52917599 0 0 1 -.529176-.52917.52917599.52917599 0 0 1 .529176-.52918.52917599.52917599 0 0 1 .529176.52918z" fill="#dbe9ee" data-original="#dbe9ee" style=""/>
      <path id="circle5424" d="m7.6729274 281.38955a.52917599.52917599 0 0 1 -.529176.52917.52917599.52917599 0 0 1 -.5291759-.52917.52917599.52917599 0 0 1 .5291759-.52918.52917599.52917599 0 0 1 .529176.52918z" fill="#dbe9ee" data-original="#dbe9ee" style=""/>
      <path id="circle4760-0" d="m2.9104186 280.59631c-.3425671 0-.6394031.22259-.7493081.52917h-.309542c-.435161 0-.792718.35755-.7927169.79272v2.64635h-.26509996c-.357802-.005-.357802.53422 0 .52916h.79374986v.79375c0 1.90096 1.5386311 3.43959 3.439583 3.43959s3.4395835-1.53863 3.4395835-3.43959v-.79375h.529167v.79375c0 1.67495-1.024056 3.09322-2.4804685 3.67885-.3359131.12788-.133528.63119.197403.49093 1.6517095-.66417 2.8122325-2.27876 2.8122325-4.16978v-1.05833c-.000016-.14612-.118466-.26457-.264584-.26458h-.264067v-2.64635c0-.43517-.359621-.79272-.794782-.79272h-.30851c-.1104206-.30658-.4077725-.52917-.7503426-.52917-.4352438 0-.792715.35747-.792715.79272s.3574712.7953.792715.7953c.341948 0 .6389351-.22345.7498246-.52968h.309028c.151153 0 .265616.11239.265616.26355v2.64635h-.2651c-.146118.00001-.264567.11846-.264584.26458v1.05833c0 1.61695-1.2934684 2.91042-2.9104165 2.91042-1.6169479 0-2.910416-1.29347-2.910416-2.91042v-1.05833c-.000016-.14612-.118465-.26457-.264584-.26458h-.264067v-2.64635c0-.15116.112395-.26355.263551-.26355h.310058c.110373.30623.406847.52968.7487921.52968.435247 0 .792715-.36005.792715-.7953s-.357468-.79272-.792715-.79272zm0 .52917c.1492639 0 .263548.11429.263548.26355s-.1142841.26562-.263548.26562c-.149265 0-.2635491-.11636-.2635491-.26562s.1142841-.26355.2635491-.26355zm4.2322978 0c.1492652 0 .2656181.11429.2656181.26355s-.1163529.26562-.2656181.26562c-.1492639 0-.2635478-.11636-.2635478-.26562s.1142839-.26355.2635478-.26355zm-6.35309876 4.49378c-.145922.002-.262448.12228-.260449.2682 0 2.21429 1.59812286 4.03332 3.70416586 4.40904v.88263c.0000161.14612.1184651.26457.2645841.26458h.2640669v2.11719c0 1.60779 1.3021051 2.91041 2.9098981 2.91041 1.6077934 0 2.9124864-1.30262 2.9124864-2.91041v-4.49792c0-1.03063.820932-1.85363 1.851564-1.85363s1.851568.823 1.851568 1.85363v1.6092c-.894789.12968-1.588016.90094-1.588016 1.83038 0 1.01975.833885 1.85157 1.853633 1.85157 1.01975 0 1.851566-.83182 1.851566-1.85157 0-.92999-.692741-1.7019-1.588016-1.83089v-1.60869c0-1.31464-1.066097-2.38073-2.380735-2.38073-1.314637 0-2.380732 1.06609-2.380732 2.38073v4.49792c0 1.32379-1.059529 2.38125-2.3833184 2.38125-1.3237901 0-2.3807312-1.05746-2.3807312-2.38125v-2.11719h.265099c.1461191-.00001.2645672-.11846.2645831-.26458v-1.09451c.0051-.3578-.5342279-.3578-.5291659 0v.82993h-.5291672v-.82993c-.0000399-.13351-.09953-.24607-.2320258-.26251-1.9636321-.24332-3.472141-1.90027-3.472141-3.93465.002-.14916-.11955796-.27053-.26871696-.2682zm13.76350136 5.55884c.733767 0 1.322399.5907 1.322399 1.32446 0 .73377-.588632 1.32189-1.322399 1.32189-.733765 0-1.324466-.58812-1.324466-1.32189 0-.73376.590701-1.32446 1.324466-1.32446zm0 .52916c-.435247 0-.795301.36006-.795301.7953 0 .43525.360054.79272.795301.79272.435246 0 .792716-.35747.792716-.79272 0-.43524-.35747-.7953-.792716-.7953zm0 .52969c.149266 0 .26355.11635.26355.26561 0 .14927-.114284.26355-.26355.26355-.149264 0-.265617-.11428-.265617-.26355 0-.14926.116353-.26561.265617-.26561z" fill="#000000" data-original="#000000" style="" class=""/>
    </g>
  </g>
</svg>
