<?xml version="1.0" encoding="UTF-8"?>
<svg xmlns="http://www.w3.org/2000/svg" xmlns:xlink="http://www.w3.org/1999/xlink" xmlns:svgjs="http://svgjs.com/svgjs" version="1.1" width="512" height="512" x="0" y="0" viewBox="0 0 511.945 511.945" style="enable-background:new 0 0 512 512" xml:space="preserve" class="">
  <g>
    <g xmlns="http://www.w3.org/2000/svg">
      <g>
        <g>
          <g>
            <path d="m317.969 324.794c-1.919 0-3.839-.732-5.303-2.196l-124.025-124.024c-2.929-2.93-2.929-7.678 0-10.607 2.929-2.928 7.678-2.928 10.606 0l124.025 124.024c2.929 2.93 2.929 7.678 0 10.607-1.464 1.464-3.384 2.196-5.303 2.196z" fill="#f5de46" data-original="#f5de46" style=""/>
          </g>
          <g>
            <path d="m492.9 162.112c-1.927 0-3.853-.737-5.318-2.212l-135.891-136.657c-2.92-2.937-2.907-7.686.03-10.606 2.938-2.921 7.687-2.907 10.607.03l135.89 136.656c2.92 2.937 2.907 7.686-.03 10.606-1.463 1.456-3.376 2.183-5.288 2.183z" fill="#f5de46" data-original="#f5de46" style=""/>
          </g>
          <g>
            <path d="m439.352 178.901c-1.919 0-3.839-.732-5.304-2.197l-99.505-99.522c-2.929-2.929-2.928-7.678.001-10.606s7.678-2.929 10.606.001l99.505 99.522c2.929 2.929 2.928 7.678-.001 10.606-1.464 1.463-3.383 2.196-5.302 2.196z" fill="#f5de46" data-original="#f5de46" style=""/>
          </g>
          <g>
            <path d="m148.381 497.447c-1.919 0-3.839-.732-5.303-2.196l-127.089-127.09c-2.929-2.93-2.929-7.678 0-10.607 2.929-2.928 7.678-2.928 10.606 0l127.089 127.089c2.929 2.93 2.929 7.678 0 10.607-1.464 1.464-3.384 2.197-5.303 2.197z" fill="#f5de46" data-original="#f5de46" style=""/>
          </g>
          <g>
            <path d="m174.282 452.395c-1.914 0-3.828-.728-5.292-2.185l-108.18-107.696c-2.936-2.923-2.946-7.671-.024-10.606 2.923-2.938 7.672-2.947 10.607-.024l108.181 107.696c2.936 2.923 2.946 7.671.024 10.606-1.466 1.472-3.391 2.209-5.316 2.209z" fill="#f5de46" data-original="#f5de46" style=""/>
          </g>
          <g>
            <path d="m346.813 282.929c-1.919 0-3.839-.732-5.303-2.196l-69.186-69.186c-2.929-2.93-2.929-7.678 0-10.607 2.929-2.928 7.678-2.928 10.606 0l69.186 69.186c2.929 2.93 2.929 7.678 0 10.607-1.464 1.464-3.383 2.196-5.303 2.196z" fill="#f5de46" data-original="#f5de46" style=""/>
          </g>
        </g>
        <path d="m191.145 387.299c-6.02-1.23-12.06-2.73-18.11-4.51-3.47-1.02-8.38-2.4-14.29-3.87-1.24-7.69-2.69-14.98-4.17-21.55 10.13 2.28 18.55 4.59 24.11 6.23 3.08.91 6.16 1.74 9.22 2.49 1.271 6.88 2.381 13.989 3.24 21.21z" fill="#68b76a" data-original="#68b76a" style="" class=""/>
        <g fill="#f3d332">
          <path d="m49.526 380.479c-.65.52-1.26 1.08-1.83 1.65-3.08 3.08-6.62 5.53-10.47 7.27l-23.84-23.84c-2.93-2.93-2.93-7.68 0-10.61 2.93-2.92 7.68-2.92 10.61 0z" fill="#f3d332" data-original="#f3d332" style="" class=""/>
          <path d="m110.266 370.469c-5.65-.49-11.34-.78-16.95-.78-1.68 0-3.32.03-4.92.08l-28.78-28.87c-2.92-2.93-2.92-7.68.02-10.61 2.93-2.92 7.68-2.91 10.6.02z" fill="#f3d332" data-original="#f3d332" style="" class=""/>
          <path d="m370.266 112.908-42.82-42.81c-2.93-2.93-2.93-7.68-.01-10.61 2.93-2.93 7.68-2.93 10.61 0l31.38 31.37v.01c-.15 6.971.15 14.381.84 22.04z" fill="#f3d332" data-original="#f3d332" style="" class=""/>
        </g>
        <path d="m228.461 167.47c4.87 4.839 3.515 13.012-2.638 16.06-9.384 4.649-17.829 10.65-25.104 17.925-21.134 21.134-31.515 52.147-29.228 87.34l.086 1.247c.717 10.997 2.81 22.453 6.23 34.06.738 2.502 1.484 5.112 2.222 7.814l-19.367 8.136-14.801-16.022c-2.602-10.632-4.251-21.17-4.918-31.429l-.079-1.255c-2.882-44.233 10.739-83.791 38.347-111.399 5.716-5.716 11.945-10.833 18.621-15.328 9.602-6.463 22.419-5.307 30.629 2.851z" fill="#0a7d53" data-original="#b3e59f" style="" class=""/>
        <path d="m388.585 38.859c-1.65 3.2-3.81 6.2-6.49 8.88-.96.96-1.86 2.02-2.71 3.16l-26.26-26.54c-2.92-2.95-2.89-7.7.05-10.61 2.95-2.91 7.7-2.89 10.61.05z" fill="#f3d332" data-original="#f3d332" style="" class=""/>
        <path d="m165.469 499.893c-6.051 6.051-15.772 6.137-21.708.201s-5.85-15.657.201-21.708c26.403-26.403 18.776-84.673 10.61-121.013l18.288-9.746 15.048 18.464c8.467 45.845 9.707 101.656-22.439 133.802z" fill="#0a7d53" data-original="#b3e59f" style="" class=""/>
        <path d="m191.146 387.299c-6.02-1.23-12.06-2.73-18.11-4.51-3.47-1.02-8.38-2.4-14.29-3.87-1.24-7.69-2.69-14.98-4.17-21.55l22.782-3.376 10.548 12.096c1.27 6.88 2.38 13.989 3.24 21.21z" fill="#95d6a4" data-original="#95d6a4" style="" class=""/>
        <path d="m11.852 368.184c-5.939-5.939-5.85-15.657.198-21.705 43.072-43.072 128.626-26.219 175.79-12.339 11.612 3.418 23.07 5.513 34.058 6.227l1.256.082c35.184 2.289 66.203-8.09 87.338-29.223 21.134-21.131 31.515-52.147 29.23-87.331-.765-11.771-2.911-23.801-6.377-35.754-13.678-47.183-30.163-132.796 13.1-176.058 6.048-6.048 15.766-6.137 21.705-.198s5.85 15.657-.198 21.705c-34.02 34.02-12.513 119.975-5.111 145.509 4.078 14.063 6.606 28.278 7.513 42.25 2.872 44.225-10.75 83.782-38.357 111.386-27.608 27.605-67.169 41.224-111.396 38.346l-1.255-.081c-13.225-.86-26.907-3.349-40.665-7.398-25.508-7.507-111.362-29.377-145.123 4.384-6.049 6.048-15.767 6.137-21.706.198z" fill="#898989" data-original="#e06c57" style="" class=""/>
        <path d="m369.176 209.388c-2.47-.4-4.95-.83-7.45-1.28-8.05-1.46-16.36-3.23-24.8-5.3-.97-4.89-2.17-9.78-3.58-14.67-.69-2.39-1.39-4.87-2.09-7.45h.01l18.244-3.186 15.796 10.936c1.69 6.981 2.98 13.981 3.87 20.95z" fill="#8ab1a3" data-original="#dd554e" style="" class=""/>
        <path d="m275.513 160.438c1.817-11.046 11.965-18.717 23.092-17.49 9.3 1.026 19.441 2.378 24.905 3.693 3.119.738 6.23 1.57 9.334 2.466 5.527 1.598 13.879 3.857 23.923 6.072 36.383 8.036 94.932 15.471 121.586-11.184 6.051-6.051 15.772-6.137 21.708-.201s5.85 15.657-.201 21.708c-32.404 32.404-88.58 31.285-134.555 22.934-12.295-2.229-23.851-4.982-34.038-7.743-2.581-.703-5.069-1.398-7.456-2.093-11.958-3.47-23.995-5.613-35.759-6.38-1.011-.066-2.019-.121-3.024-.165-6.023-.268-10.494-5.668-9.515-11.617z" fill="#0a7d53" data-original="#b3e59f" style="" class=""/>
        <g>
          <path d="m241.256 112.471c-3.448 0-6.552-2.393-7.319-5.899l-12.822-58.614c-.885-4.046 1.678-8.044 5.724-8.93 4.045-.884 8.044 1.678 8.929 5.725l12.822 58.614c.885 4.046-1.677 8.044-5.724 8.93-.539.117-1.079.174-1.61.174z" fill="#f5de46" data-original="#f5de46" style=""/>
        </g>
        <g>
          <path d="m215.164 133.533c-1.995 0-3.984-.79-5.459-2.356l-39.992-42.435c-2.841-3.014-2.7-7.761.314-10.602 3.015-2.843 7.762-2.701 10.602.314l39.992 42.435c2.841 3.014 2.7 7.761-.314 10.602-1.45 1.366-3.299 2.042-5.143 2.042z" fill="#f5de46" data-original="#f5de46" style=""/>
        </g>
        <g>
          <path d="m273.777 120.713c-.794 0-1.602-.127-2.396-.395-3.925-1.323-6.035-5.577-4.712-9.503l18.622-55.256c1.323-3.925 5.578-6.034 9.502-4.712 3.925 1.323 6.035 5.577 4.712 9.503l-18.622 55.256c-1.054 3.132-3.975 5.107-7.106 5.107z" fill="#f5de46" data-original="#f5de46" style=""/>
        </g>
        <g>
          <path d="m221.156 209.989c-2.2 1.75-4.3 3.62-6.29 5.61-1.55 1.55-3.04 3.18-4.44 4.87l-14.21-14.17c3.268-3.791 6.868-7.294 10.71-10.5z" fill="#f3d332" data-original="#f3d332" style="" class=""/>
        </g>
        <g>
          <path d="m194.166 253.609c-1.44 5.86-2.37 12.03-2.76 18.44l-17.85-17.85c1.103-5.651 2.615-11.217 4.57-16.63z" fill="#f3d332" data-original="#f3d332" style="" class=""/>
        </g>
      </g>
      <g>
        <path d="m505.363 138.491c-6.254-6.253-15.317-8.021-23.263-5.376l-103.116-103.698c2.441-7.841.611-16.694-5.53-22.836-8.853-8.852-23.348-8.763-32.312.198-15.943 15.943-25.667 38.364-28.901 66.64-2.157 18.856-1.439 40.332 2.125 63.959-5.01-.736-10.412-1.385-14.939-1.885-15.097-1.663-28.853 8.757-31.315 23.729-2.133 11.435 8.216 21.358 19.452 20.482 12.374.756 25.209 3.338 37.613 7.086 6.186 20.469 9.048 42.017 6.333 62.728l-48.579-48.579c-2.929-2.928-7.678-2.928-10.606 0-2.929 2.93-2.929 7.678 0 10.607l55.513 55.513c-3.631 12.227-9.33 23.221-16.949 32.548l-98.542-98.542c5.105-4.17 10.724-7.801 16.807-10.815 10.567-4.884 13.072-20.114 4.594-28.101-10.688-10.62-27.555-12.199-40.103-3.751-6.771 4.56-13.141 9.757-18.932 15.448-2.954 2.903-2.995 7.652-.091 10.605 2.903 2.955 7.651 2.996 10.606.092 5.135-5.047 10.785-9.657 16.794-13.702 6.629-4.465 15.524-3.645 21.153 1.947 1.233 1.657 1.027 2.838-.68 4.021-10.173 5.04-19.284 11.547-27.079 19.341-22.683 22.684-33.837 55.758-31.407 93.159.629 10.51 2.35 21.139 5.249 32.067-5.666-1.348-11.493-2.681-17.189-3.795-1.977-9.073-3.209-17.934-3.718-26.723-1.927-29.573 3.902-57.298 16.856-80.176 2.041-3.604.773-8.181-2.831-10.222-3.604-2.042-8.181-.774-10.222 2.831-14.397 25.428-20.889 56.045-18.772 88.522.443 7.605 1.392 15.232 2.841 23.017-45.371-6.875-97.714-5.418-129.473 26.342-8.86 8.493-9.065 23.797-.199 32.312 5.35 5.436 13.388 7.725 20.836 6.072l105.004 105.003c-1.654 7.453.638 15.488 6.069 20.834 8.521 8.87 23.82 8.658 32.314-.2 8.706-8.706 15.601-19.465 20.493-31.977 1.509-3.858-.396-8.208-4.254-9.717-3.856-1.508-8.208.397-9.716 4.254-4.134 10.572-9.897 19.601-17.129 26.833-2.907 3.04-8.175 3.251-11.101.2-3.042-2.933-2.842-8.191.201-11.1 25.452-25.452 23.013-75.128 15.072-116.257 5.847 1.466 11.283 3.135 17.03 4.716 4.039 23.657 5.142 44.99 3.276 63.471-.416 4.121 2.587 7.799 6.708 8.215 4.117.425 7.799-2.587 8.215-6.709 1.837-18.193 1.013-38.806-2.432-61.395 50.961 10.108 106.814-3.13 140.166-37.691 29.155-29.152 43.551-70.767 40.538-117.177-.499-7.678-1.484-15.456-2.919-23.234 11.414 1.708 22.384 2.763 32.727 3.136.092.003.184.005.275.005 4.017 0 7.344-3.183 7.49-7.229.149-4.14-3.085-7.616-7.225-7.766-12.897-.465-26.871-2.052-41.538-4.717-25.405-3.973-52.239-15.09-78.113-16.321-2.306-.142-6.011.209-5.623-3.08 1.168-7.101 7.694-12.039 14.87-11.252 26.676 2.514 31.741 6.444 57.366 12.099 19.226 4.247 41.267 7.681 62.293 7.68 26.095-.002 50.623-5.292 66.213-20.883 3.116-3.117 8.096-3.206 11.101-.202 3.005 3.006 2.916 7.986-.2 11.102-12.572 12.572-30.333 20.632-52.792 23.955-4.098.606-6.928 4.419-6.322 8.517s4.42 6.93 8.517 6.321c25.713-3.805 46.305-13.288 61.203-28.186 8.963-8.963 9.053-23.459.199-32.313zm-320.362 183.492c-5.997-20.385-7.911-41.076-4.955-61.292l28.729 28.729c1.464 1.464 3.384 2.196 5.303 2.196s3.839-.732 5.303-2.196c2.929-2.93 2.929-7.678 0-10.607l-35.34-35.34c3.86-12.036 9.763-22.823 17.566-31.931l98.796 98.797c-9.108 7.803-19.896 13.707-31.932 17.566l-24.342-24.343c-2.928-2.93-7.677-2.929-10.606-.001-2.929 2.929-2.929 7.678 0 10.606l17.731 17.732c-21.477 3.21-43.679.63-65.138-6.065-.362-1.275-.734-2.561-1.115-3.851zm-44.682 149.295-99.648-99.647c8.59-7.53 21.125-11.741 35.865-13.461l77.381 77.034c-1.613 14.24-5.675 27.078-13.598 36.074zm14.421-56.421-57.847-57.588c16.286.287 33.986 2.684 51.366 6.367 3.067 14.504 6.08 33.036 6.481 51.221zm171.955-87.425c-26.061 26.057-63.566 38.907-105.604 36.165-39.853-2.984-65.918-18.116-111.31-20.758-38.051-2.878-65.479 3.796-81.527 19.844-2.91 3.041-8.162 3.243-11.098.197-3.043-2.933-2.844-8.189.198-11.098 29.878-29.878 82.876-28.58 126.87-20.449 25.958 4.143 52.465 15.464 78.444 16.602 37.375 2.434 70.445-8.723 93.127-31.404 22.683-22.68 33.838-55.75 31.412-93.121-.691-10.633-2.461-21.458-5.26-32.25 5.799 1.391 11.524 2.638 17.14 3.733 1.932 9.016 3.207 18.057 3.784 26.942 2.73 42.039-10.118 79.541-36.176 105.597zm106.285-173.012-75.452-75.465c1.468-14.364 5.301-27.458 12.899-36.87l99.12 99.678c-9.391 7.437-22.357 11.207-36.567 12.657zm-69.898-5.563c-2.904-14.013-5.728-31.76-6.217-49.351l55.565 55.575c-17.59-.491-35.336-3.317-49.348-6.224zm-33.019-8.302c-6.819-40.764-7.992-93.49 21.686-123.168 3.114-3.114 8.093-3.205 11.098-.199s2.917 7.985-.198 11.1c-25.686 25.686-23.412 75.612-15.593 116.889-7.228-1.805-11.149-3.048-16.993-4.622z" fill="#000000" data-original="#000000" style="" class=""/>
        <path d="m233.937 106.572c.767 3.507 3.872 5.899 7.319 5.899 4.715.052 8.403-4.499 7.334-9.104l-12.822-58.614c-.885-4.047-4.884-6.608-8.929-5.725-4.046.886-6.609 4.884-5.724 8.93z" fill="#000000" data-original="#000000" style="" class=""/>
        <path d="m209.704 131.177c2.845 3.019 7.593 3.151 10.602.314 3.014-2.841 3.155-7.588.314-10.602l-39.992-42.435c-2.84-3.016-7.587-3.157-10.602-.314-3.014 2.841-3.155 7.588-.314 10.602z" fill="#000000" data-original="#000000" style="" class=""/>
        <path d="m271.381 120.319c3.82 1.318 8.187-.749 9.502-4.712l18.622-55.256c1.323-3.926-.787-8.18-4.712-9.503-3.925-1.322-8.18.787-9.502 4.712l-18.622 55.256c-1.323 3.925.787 8.179 4.712 9.503z" fill="#000000" data-original="#000000" style="" class=""/>
      </g>
    </g>
  </g>
</svg>
