<svg id="Capa_1" enable-background="new 0 0 512 512" height="512" viewBox="0 0 512 512" width="512" xmlns="http://www.w3.org/2000/svg"><g><g><path d="m314.719 7.503c17.552 0 31.781 14.182 31.781 31.676v219.622c0 17.494-14.229 31.676-31.781 31.676h-113.732c-4.464 0-8.712-4.126-12.327-1.516l-81.49 57.317c-7.004 5.057-16.808.069-16.808-8.551l-1.021-25.787c0-11.663-9.536-25.598-21.237-25.598h-25.426c-17.552 0-31.781-14.182-31.781-31.676l7.465-210.13c0-13.722-2.108-30.762 10.138-35.163 3.366-1.21 6.997-1.869 10.782-1.869h275.437z" fill="#169ac9"/><path d="m344.65 269.473c-4.4 12.24-16.14 21-29.93 21h-113.73c-4.47 0-8.82 1.41-12.43 4.02l-85.86 61.98c-7 5.06-16.81.07-16.81-8.55v-36.33c0-11.66-9.48-21.12-21.18-21.12h-25.43c-17.55 0-31.78-14.18-31.78-31.67v-219.62c0-13.73 8.76-25.41 21-29.81v249.43c0 5.88 4.84 10.67 10.78 10.67h25.43c23.26 0 42.18 18.9 42.18 42.12v6.18c0 4.08 4.62 6.44 7.93 4.05l61.44-44.36c7.24-5.22 15.79-7.99 24.73-7.99z" fill="#0191b7"/><path d="m197.281 153.503c-3.785 0-7.415.659-10.782 1.869-12.246 4.401-10.5 19.909-10.5 33.631l-3.037 210.657c0 17.494 14.229 31.676 31.781 31.676l107.571-2.008c4.464 0 8.814 1.405 12.429 4.015l78.095 58.721c7.004 5.057 16.808.069 16.808-8.551l-1.473-31.06c0-11.663 17.417-15.977 21.187-21.117h25.425c20.019 4.038 33.093-3.847 37.779-15.896 1.279-3.289 1.934-6.888 1.934-10.64v-219.621c0-17.494-14.229-31.676-31.781-31.676z" fill="#b4e3f5"/><path d="m502.65 415.473c-4.4 12.24-16.14 21-29.93 21h-25.43c-11.7 0-21.18 9.46-21.18 21.12v36.33c0 8.62-9.81 13.61-16.81 8.55l-85.86-61.98c-3.61-2.61-7.96-4.02-12.43-4.02h-113.73c-17.55 0-31.78-14.18-31.78-31.67v-219.62c0-13.73 8.76-25.41 21-29.81v249.43c0 5.88 4.84 10.67 10.78 10.67h113.73c8.94 0 17.49 2.77 24.72 7.99l63.04 45.51c2.64 1.91 6.34.02 6.34-3.24v-8.14c0-23.22 18.92-42.12 42.18-42.12z" fill="#83d3f0"/></g><g><path d="m7.5 181.503c4.143 0 7.5-3.357 7.5-7.5v-134.824c0-13.331 10.893-24.176 24.281-24.176h93.719c4.143 0 7.5-3.357 7.5-7.5s-3.357-7.5-7.5-7.5h-93.719c-21.66 0-39.281 17.574-39.281 39.176v134.824c0 4.143 3.357 7.5 7.5 7.5z"/><path d="m504.5 347.503c-4.143 0-7.5 3.357-7.5 7.5v49.798c0 13.331-10.893 24.176-24.281 24.176h-25.425c-15.818 0-28.688 12.838-28.688 28.617v36.332c0 1.619-1.047 2.396-1.672 2.716-.634.325-1.9.727-3.246-.246l-85.855-61.984c-4.925-3.556-10.741-5.435-16.82-5.435h-54.013c-4.143 0-7.5 3.357-7.5 7.5s3.357 7.5 7.5 7.5h54.013c2.907 0 5.687.897 8.04 2.597l85.855 61.984c3.158 2.28 6.862 3.439 10.592 3.439 2.815 0 5.646-.661 8.266-2.001 6.07-3.104 9.841-9.262 9.841-16.07v-36.332c0-7.509 6.141-13.617 13.688-13.617h25.425c21.66 0 39.281-17.574 39.281-39.176v-49.798c-.001-4.143-3.358-7.5-7.501-7.5z"/><path d="m472.719 146.003h-118.719v-106.824c0-21.602-17.621-39.176-39.281-39.176h-146.719c-4.143 0-7.5 3.357-7.5 7.5s3.357 7.5 7.5 7.5h146.719c13.389 0 24.281 10.845 24.281 24.176v106.824h-141.719c-21.265 0-38.624 16.941-39.251 38h-81.03c-4.143 0-7.5 3.357-7.5 7.5s3.357 7.5 7.5 7.5h81v13h-111c-4.143 0-7.5 3.357-7.5 7.5s3.357 7.5 7.5 7.5h111v13h-111c-4.143 0-7.5 3.357-7.5 7.5s3.357 7.5 7.5 7.5h111v52.3l-59.688 43.093c-1.348.972-2.612.571-3.247.246-.625-.319-1.672-1.097-1.672-2.716v-36.332c0-15.779-12.869-28.617-28.688-28.617h-25.424c-13.388 0-24.281-10.845-24.281-24.176v-49.798c0-4.143-3.357-7.5-7.5-7.5s-7.5 3.357-7.5 7.5v49.798c0 21.602 17.621 39.176 39.281 39.176h25.425c7.547 0 13.688 6.108 13.688 13.617v36.332c0 6.809 3.771 12.966 9.841 16.07 2.62 1.34 5.449 2.001 8.266 2.001 3.729 0 7.434-1.159 10.593-3.439l50.906-36.754v78.997c0 21.602 17.621 39.176 39.281 39.176h24.719c4.143 0 7.5-3.357 7.5-7.5s-3.357-7.5-7.5-7.5h-24.719c-13.389 0-24.281-10.845-24.281-24.176v-219.622c0-13.331 10.893-24.176 24.281-24.176h275.438c13.389 0 24.281 10.845 24.281 24.176v134.824c0 4.143 3.357 7.5 7.5 7.5s7.5-3.357 7.5-7.5v-134.824c0-21.602-17.621-39.176-39.281-39.176z"/><path d="m166.5 95.003h125c4.143 0 7.5-3.357 7.5-7.5s-3.357-7.5-7.5-7.5h-125c-4.143 0-7.5 3.357-7.5 7.5s3.357 7.5 7.5 7.5z"/><path d="m166.5 123.003h95c4.143 0 7.5-3.357 7.5-7.5s-3.357-7.5-7.5-7.5h-95c-4.143 0-7.5 3.357-7.5 7.5s3.357 7.5 7.5 7.5z"/><path d="m223.501 326.504c0 4.143 3.357 7.5 7.5 7.5h132.999c4.143 0 7.5-3.357 7.5-7.5s-3.357-7.5-7.5-7.5h-132.999c-4.143 0-7.5 3.357-7.5 7.5z"/><path d="m445.501 319.004h-46.501c-4.143 0-7.5 3.357-7.5 7.5s3.357 7.5 7.5 7.5h46.501c4.143 0 7.5-3.357 7.5-7.5s-3.357-7.5-7.5-7.5z"/><path d="m193.501 354.504c0 4.143 3.357 7.5 7.5 7.5h65.999c4.143 0 7.5-3.357 7.5-7.5s-3.357-7.5-7.5-7.5h-65.999c-4.143 0-7.5 3.357-7.5 7.5z"/><path d="m445.501 347.004h-143.501c-4.143 0-7.5 3.357-7.5 7.5s3.357 7.5 7.5 7.5h143.501c4.143 0 7.5-3.357 7.5-7.5s-3.357-7.5-7.5-7.5z"/><path d="m201.001 390.004h184.5c4.143 0 7.5-3.357 7.5-7.5s-3.357-7.5-7.5-7.5h-184.5c-4.143 0-7.5 3.357-7.5 7.5s3.357 7.5 7.5 7.5z"/><path d="m276.687 290.663c3.03 0 5.885-1.851 7.018-4.854l5.968-15.813h40.421l6.031 15.835c1.475 3.871 5.813 5.816 9.678 4.339 3.871-1.475 5.814-5.808 4.34-9.678l-31.602-82.974c-.021-.056-.044-.112-.066-.168-1.45-3.549-4.865-5.844-8.698-5.848-.003 0-.007 0-.01 0-3.829 0-7.244 2.287-8.7 5.83-.028.067-.055.135-.08.203l-31.314 82.977c-1.463 3.876.493 8.203 4.368 9.665.87.33 1.766.486 2.646.486zm33.103-73.975 14.59 38.308h-29.047z"/><path d="m256.197 192.177h-33.563c-4.143 0-7.5 3.357-7.5 7.5v82.811c0 4.143 3.357 7.5 7.5 7.5s7.5-3.357 7.5-7.5v-34.689h23.396c4.143 0 7.5-3.357 7.5-7.5s-3.357-7.5-7.5-7.5h-23.396v-25.621h26.063c4.143 0 7.5-3.357 7.5-7.5s-3.357-7.501-7.5-7.501z"/><path d="m405.334 191.871c-27.135 0-49.211 22.076-49.211 49.211s22.076 49.211 49.211 49.211c11.036 0 21.234-3.652 29.451-9.81l7.277 7.277c1.465 1.464 3.385 2.196 5.304 2.196s3.839-.732 5.304-2.196c2.929-2.93 2.929-7.678 0-10.607l-7.387-7.387c5.819-8.082 9.261-17.986 9.261-28.683 0-27.136-22.075-49.212-49.21-49.212zm0 83.422c-18.864 0-34.211-15.347-34.211-34.211s15.347-34.211 34.211-34.211c18.863 0 34.21 15.347 34.21 34.211 0 6.551-1.854 12.676-5.061 17.884l-8.501-8.501c-2.93-2.928-7.678-2.928-10.607 0-2.929 2.93-2.929 7.678 0 10.607l8.645 8.645c-5.376 3.52-11.794 5.576-18.686 5.576z"/><path d="m94.5 105.615c5.755-1.43 11.067-4.48 15.202-8.835 5.971-6.288 9.011-14.529 8.562-23.205-.847-16.294-14.297-29.315-30.622-29.645-15.817-.35-29.458 11.265-31.646 26.944-.2 1.435-.302 2.9-.302 4.356 0 4.143 3.357 7.5 7.5 7.5s7.5-3.357 7.5-7.5c0-.767.053-1.535.157-2.285 1.123-8.048 8.036-14.021 16.155-14.021.11 0 .222.001.333.003 8.5.172 15.503 6.948 15.943 15.426.235 4.526-1.349 8.824-4.459 12.1-3.111 3.277-7.31 5.083-11.823 5.083-4.143 0-7.5 3.357-7.5 7.5v24.894c0 4.143 3.357 7.5 7.5 7.5s7.5-3.357 7.5-7.5z"/><circle cx="87.001" cy="151.939" r="7.5"/></g></g></svg>