<svg id="Capa_1" enable-background="new 0 0 512 512" height="512" viewBox="0 0 512 512" width="512" xmlns="http://www.w3.org/2000/svg"><g><path d="m167.444 376.672-32.088-32.116c-3.061-3.062-7.116-4.593-11.169-4.593-4.054 0-8.107 1.531-11.169 4.593l-25.795 25.795 54.426 54.426 25.795-25.795c3.062-3.061 4.593-7.115 4.593-11.168 0-4.054-1.531-8.081-4.593-11.142zm133.94-165.715 51.193-29.537c-.736-6.123-2.522-11.906-5.188-17.15l-51.194 29.566c.738 6.094 2.524 11.877 5.189 17.121zm50.258-11.707-41.584 23.981c4.11 4.338 8.957 7.938 14.344 10.631 8.106-4.082 15.023-10.234 20.012-17.773 3.345-5.047 5.811-10.745 7.228-16.839zm-54.483-23.244 41.557-24.01c-4.11-4.309-8.957-7.908-14.314-10.602-8.136 4.054-15.053 10.205-20.041 17.745-3.346 5.074-5.812 10.744-7.202 16.867zm70.782 120.558c0 4.14-3.374 7.513-7.512 7.513-4.139 0-7.483-3.373-7.483-7.513 0-10.545-3.146-20.324-8.533-28.459-4.988-7.541-11.905-13.691-20.012-17.773-8.136 4.082-15.053 10.232-20.041 17.773-5.388 8.135-8.505 17.914-8.505 28.459 0 4.14-3.373 7.513-7.512 7.513s-7.512-3.373-7.512-7.513c0-13.549 4.081-26.163 11.055-36.736 4.592-6.916 10.433-12.955 17.207-17.717-6.775-4.791-12.615-10.828-17.207-17.744-6.974-10.575-11.055-23.188-11.055-36.739 0-13.549 4.081-26.191 11.055-36.736 4.592-6.945 10.433-12.955 17.207-17.745-6.775-4.79-12.615-10.801-17.207-17.746-6.974-10.545-11.055-23.188-11.055-36.736 0-4.139 3.373-7.484 7.512-7.484s7.512 3.346 7.512 7.484c0 10.545 3.117 20.324 8.505 28.488 4.988 7.54 11.905 13.691 20.041 17.744 8.106-4.053 15.023-10.204 20.012-17.744 5.387-8.164 8.533-17.943 8.533-28.488 0-4.139 3.345-7.484 7.483-7.484s7.512 3.346 7.512 7.484c0 13.549-4.082 26.191-11.056 36.736-4.592 6.945-10.432 12.956-17.206 17.746 6.774 4.79 12.614 10.8 17.206 17.745 6.974 10.545 11.056 23.188 11.056 36.736 0 13.551-4.054 26.164-11.056 36.739-4.592 6.916-10.432 12.953-17.206 17.744 6.774 4.762 12.614 10.801 17.206 17.717 6.974 10.572 11.056 23.187 11.056 36.736zm106.075-128.949c.538 4.109-2.353 7.852-6.464 8.391-4.082.538-7.823-2.354-8.362-6.436-1.928-14.541-6.236-28.799-12.869-42.237-6.378-12.926-14.967-25.058-25.768-35.857-26.561-26.561-61.37-39.827-96.151-39.827-34.811 0-69.62 13.267-96.152 39.827-26.561 26.561-39.828 61.343-39.828 96.151 0 34.782 13.267 69.593 39.828 96.153 26.532 26.532 61.342 39.827 96.152 39.827 34.781 0 69.591-13.295 96.151-39.827 11.254-11.282 20.127-24.038 26.617-37.645 6.747-14.145 10.886-29.168 12.473-44.392.426-4.11 4.082-7.115 8.192-6.689 4.111.425 7.116 4.109 6.691 8.221-1.758 16.952-6.38 33.676-13.835 49.323-7.199 15.109-17.036 29.281-29.537 41.783-29.48 29.482-68.117 44.221-106.753 44.221-38.638 0-77.273-14.739-106.754-44.221-29.482-29.48-44.222-68.117-44.222-106.755 0-38.636 14.74-77.272 44.222-106.753 29.48-29.48 68.116-44.222 106.754-44.222 38.636 0 77.272 14.741 106.753 44.222 11.935 11.934 21.459 25.427 28.602 39.826 7.342 14.885 12.105 30.758 14.26 46.916zm-336.59 35.518c-.34-4.139 2.722-7.767 6.86-8.107 4.139-.311 7.738 2.75 8.078 6.86 1.645 20.042 6.775 39.828 15.393 58.395 8.277 17.858 19.785 34.611 34.582 49.409 33.705 33.704 77.869 50.541 122.063 50.541 44.163 0 88.356-16.837 122.061-50.541 33.705-33.705 50.543-77.898 50.543-122.063 0-44.191-16.838-88.356-50.543-122.06-33.704-33.706-77.897-50.571-122.061-50.571-44.193 0-88.357 16.865-122.063 50.571-14.286 14.258-25.512 30.387-33.732 47.594-8.561 17.887-13.832 36.907-15.873 56.183-.426 4.11-4.082 7.087-8.192 6.662-4.11-.396-7.115-4.082-6.69-8.192 2.211-21.033 7.966-41.699 17.207-61.088 8.957-18.736 21.175-36.283 36.68-51.76 36.623-36.653 84.642-54.966 132.662-54.966 47.99 0 96.01 18.313 132.662 54.966 36.626 36.623 54.937 84.643 54.937 132.661 0 48.021-18.311 96.011-54.936 132.664-36.652 36.623-84.672 54.936-132.662 54.936-38.496 0-76.99-11.764-109.617-35.291l-32.089 32.088c2.892 4.848 4.337 10.318 4.337 15.79 0 7.88-2.977 15.789-8.986 21.77-31.152 31.152-62.278 62.307-93.431 93.431-5.98 6.01-13.89 8.986-21.769 8.986-7.881 0-15.761-2.977-21.743-8.986l-32.118-32.089c-5.981-5.982-8.986-13.891-8.986-21.771 0-7.881 3.005-15.761 8.986-21.771 31.152-31.124 62.307-62.277 93.431-93.431 6.01-5.981 13.89-8.985 21.771-8.985 5.472 0 10.971 1.445 15.817 4.336l32.089-32.089c-7.03-9.751-13.011-20.013-17.943-30.671-9.355-20.182-14.939-41.696-16.725-63.411zm35.319 157.637 29.736-29.735-21.516-21.486-29.707 29.707zm-96.124 20.21-20.607 20.608 54.397 54.426 20.638-20.637zm-31.237 31.211-25.796 25.795c-3.062 3.062-4.593 7.115-4.593 11.169 0 4.053 1.531 8.107 4.593 11.168l32.117 32.089c3.062 3.063 7.087 4.593 11.141 4.593 4.053 0 8.106-1.53 11.168-4.593l25.795-25.796z"/></g></svg>