<svg id="Capa_1" enable-background="new 0 0 511.998 511.998" height="512" viewBox="0 0 511.998 511.998" width="512" xmlns="http://www.w3.org/2000/svg"><g><path d="m206.778 32.788c3.092 3.092 3.092 8.105 0 11.197-3.092 3.092-8.105 3.092-11.197 0-3.092-3.092-3.092-8.105 0-11.197 3.092-3.092 8.105-3.092 11.197 0z"/><g><path d="m481.665 124.249h-24.662v-23.661c0-4.142-3.358-7.5-7.5-7.5h-.224v-23.463c0-4.142-3.358-7.5-7.5-7.5h-30.967c-4.142 0-7.5 3.358-7.5 7.5v23.463h-.229c-4.142 0-7.5 3.358-7.5 7.5v99.82c0 4.142 3.358 7.5 7.5 7.5s7.5-3.358 7.5-7.5v-61.159h31.42v140.309h-31.42v-46.46c0-4.142-3.358-7.5-7.5-7.5s-7.5 3.358-7.5 7.5l.001 162.68c0 4.142 3.358 7.5 7.5 7.5h.181v23.031c0 1.928.743 3.782 2.073 5.177l13.458 14.107v19.928c0 4.142 3.358 7.5 7.5 7.5s7.5-3.358 7.5-7.5v-19.928l13.458-14.107c1.331-1.395 2.073-3.249 2.073-5.177v-23.031h.181c4.142 0 7.5-3.358 7.5-7.5l-.005-256.529h17.162v85.687c0 4.142 3.358 7.5 7.5 7.5s7.5-3.358 7.5-7.5v-93.187c0-4.142-3.358-7.5-7.5-7.5zm-71.081 264.029v-93.718h31.424v93.718h-.181-31.062zm23.743 35.027-8.031 8.419-8.031-8.418v-20.027h16.062zm-16.014-346.18h15.967v15.963h-15.967zm-7.73 47.124v-16.161h.162c.023 0 .045.003.068.003h30.967c.023 0 .045-.003.068-.003h.156v16.161z"/><path d="m372.023 31.058h-133.014c-3.502-17.683-19.133-31.058-37.829-31.058s-34.328 13.375-37.83 31.058h-133.017c-4.142 0-7.5 3.358-7.5 7.5v465.94c0 4.142 3.358 7.5 7.5 7.5h182.11c4.142 0 7.5-3.358 7.5-7.5s-3.358-7.5-7.5-7.5h-174.61v-450.94h68.141v16.07h-44.571c-4.142 0-7.5 3.358-7.5 7.5v111.14c0 4.142 3.358 7.5 7.5 7.5s7.5-3.358 7.5-7.5v-103.64h37.071v7.98c0 4.142 3.358 7.5 7.5 7.5h175.411c4.142 0 7.5-3.358 7.5-7.5v-7.98h37.078v388.81h-264.56v-252.48c0-4.142-3.358-7.5-7.5-7.5s-7.5 3.358-7.5 7.5v259.98c0 4.142 3.358 7.5 7.5 7.5h279.56c4.142 0 7.5-3.358 7.5-7.5v-403.81c0-4.142-3.358-7.5-7.5-7.5h-44.578v-16.07h68.138v450.94h-119.39c-4.142 0-7.5 3.358-7.5 7.5s3.358 7.5 7.5 7.5h126.89c4.142 0 7.5-3.358 7.5-7.5v-465.94c0-4.142-3.358-7.5-7.5-7.5zm-251.049 46.55v-31.546h49.143c4.142 0 7.5-3.358 7.5-7.5 0-12.992 10.571-23.562 23.563-23.562s23.562 10.57 23.562 23.562c0 4.142 3.358 7.5 7.5 7.5h49.143v31.546z"/><path d="m288.885 310.591h-103.237c-4.142 0-7.5 3.358-7.5 7.5s3.358 7.5 7.5 7.5h103.236c4.142 0 7.5-3.358 7.5-7.5s-3.357-7.5-7.499-7.5z"/><path d="m288.885 341.654h-103.237c-4.142 0-7.5 3.358-7.5 7.5s3.358 7.5 7.5 7.5h103.236c4.142 0 7.5-3.358 7.5-7.5s-3.357-7.5-7.499-7.5z"/><path d="m288.885 372.716h-103.237c-4.142 0-7.5 3.358-7.5 7.5s3.358 7.5 7.5 7.5h103.236c4.142 0 7.5-3.358 7.5-7.5s-3.357-7.5-7.499-7.5z"/><path d="m100.493 318.091c0 4.142 3.358 7.5 7.5 7.5h46.594c4.142 0 7.5-3.358 7.5-7.5s-3.358-7.5-7.5-7.5h-46.594c-4.142 0-7.5 3.358-7.5 7.5z"/><path d="m107.993 356.654h46.594c4.142 0 7.5-3.358 7.5-7.5s-3.358-7.5-7.5-7.5h-46.594c-4.142 0-7.5 3.358-7.5 7.5s3.358 7.5 7.5 7.5z"/><path d="m107.993 387.716h46.594c4.142 0 7.5-3.358 7.5-7.5s-3.358-7.5-7.5-7.5h-46.594c-4.142 0-7.5 3.358-7.5 7.5s3.358 7.5 7.5 7.5z"/><path d="m287.261 418.809h-58.47c-4.142 0-7.5 3.358-7.5 7.5s3.358 7.5 7.5 7.5h58.47c4.142 0 7.5-3.358 7.5-7.5s-3.358-7.5-7.5-7.5z"/><path d="m201.178 108.686c-46.946 0-85.14 38.194-85.14 85.14s38.194 85.14 85.14 85.14 85.14-38.194 85.14-85.14-38.194-85.14-85.14-85.14zm0 155.28c-38.675 0-70.14-31.465-70.14-70.14s31.465-70.14 70.14-70.14 70.14 31.465 70.14 70.14-31.465 70.14-70.14 70.14z"/><path d="m224.208 170.81v-23.562c0-4.142-3.358-7.5-7.5-7.5h-31.062c-4.142 0-7.5 3.358-7.5 7.5v23.562h-23.563c-4.142 0-7.5 3.358-7.5 7.5v31.063c0 4.142 3.358 7.5 7.5 7.5h23.563v23.562c0 4.142 3.358 7.5 7.5 7.5h31.062c4.142 0 7.5-3.358 7.5-7.5v-23.562h23.563c4.142 0 7.5-3.358 7.5-7.5v-31.063c0-4.142-3.358-7.5-7.5-7.5zm16.063 31.063h-23.563c-4.142 0-7.5 3.358-7.5 7.5v23.562h-16.062v-23.562c0-4.142-3.358-7.5-7.5-7.5h-23.563v-16.063h23.563c4.142 0 7.5-3.358 7.5-7.5v-23.562h16.062v23.562c0 4.142 3.358 7.5 7.5 7.5h23.563z"/></g></g></svg>