<?xml version="1.0" encoding="UTF-8"?>
<svg xmlns="http://www.w3.org/2000/svg" xmlns:xlink="http://www.w3.org/1999/xlink" xmlns:svgjs="http://svgjs.com/svgjs" version="1.1" width="512" height="512" x="0" y="0" viewBox="0 0 504.31907 504" style="enable-background:new 0 0 512 512" xml:space="preserve" class="">
  <g>
    <path xmlns="http://www.w3.org/2000/svg" d="m48.496094 268.582031-28.285156 57.664063c-.316407.683594-.59375 1.382812-.839844 2.097656-5.101563 15.355469-2.523438 32.226562 6.933594 45.359375 9.457031 13.128906 24.644531 20.921875 40.828124 20.949219h50.359376v-33.574219h-50.359376c-5.242187.003906-10.183593-2.441406-13.359374-6.605469-3.179688-4.167968-4.230469-9.578125-2.839844-14.628906l27.949218-56.824219zm0 0" fill="#cfd8dc" data-original="#cfd8dc" style="" class=""/>
    <path xmlns="http://www.w3.org/2000/svg" d="m393.746094 168.28125h51.089844c15.144531.011719 29.484374 6.839844 39.035156 18.589844 9.554687 11.753906 13.3125 27.179687 10.234375 42.007812l-34.890625 140.59375-32.566406-8.144531 34.75-139.917969c.859374-4.75-.433594-9.636718-3.527344-13.34375-3.179688-3.9375-7.972656-6.222656-13.035156-6.210937h-51.117188" fill="#37474f" data-original="#37474f" style=""/>
    <path xmlns="http://www.w3.org/2000/svg" d="m360.902344 8.554688h-218.230469c-8.90625-.011719-17.453125 3.519531-23.753906 9.820312-6.296875 6.296875-9.832031 14.84375-9.820313 23.75v419.675781c0 18.539063 15.03125 33.570313 33.574219 33.570313h218.230469c10.566406 0 20.519531-4.972656 26.859375-13.429688l6.714843-20.140625v-419.675781c0-18.539062-15.03125-33.570312-33.574218-33.570312zm0 0" fill="#37474f" data-original="#37474f" style=""/>
    <path xmlns="http://www.w3.org/2000/svg" d="m109.097656 58.914062h285.378906v369.3125h-285.378906zm0 0" fill="#0a7d53" data-original="#1566c0" style="" class=""/>
    <path xmlns="http://www.w3.org/2000/svg" d="m369.296875 369.472656v92.328125l-6.714844 20.140625c-6.34375 8.457032-16.292969 13.429688-26.859375 13.429688h-193.050781c-18.542969 0-33.574219-15.03125-33.574219-33.570313v-92.328125zm0 0" fill="#607d8b" data-original="#607d8b" style="" class=""/>
    <path xmlns="http://www.w3.org/2000/svg" d="m369.296875 42.125v328.015625l-33.070313 58.085937h-227.128906v-386.101562c-.011718-8.90625 3.523438-17.453125 9.820313-23.75 6.300781-6.300781 14.847656-9.832031 23.753906-9.820312h193.050781c18.542969 0 33.574219 15.03125 33.574219 33.570312zm0 0" fill="#607d8b" data-original="#607d8b" style="" class=""/>
    <path xmlns="http://www.w3.org/2000/svg" d="m109.097656 58.914062h260.199219v369.3125h-260.199219zm0 0" fill="#1e684d" data-original="#0377bc" style="" class=""/>
    <path xmlns="http://www.w3.org/2000/svg" d="m369.296875 58.914062v16.03125c-47.003906 23.5-157.964844 108.105469-260.199219 334.3125v-350.34375zm0 0" fill="#81bfaf" data-original="#02a9f4" style="" class=""/>
    <path xmlns="http://www.w3.org/2000/svg" d="m310.542969 302.324219h-33.574219v-33.574219c0-4.636719-3.757812-8.394531-8.394531-8.394531h-33.574219c-4.636719 0-8.394531 3.757812-8.394531 8.394531v33.574219h-33.574219c-4.632812 0-8.390625 3.757812-8.390625 8.394531v33.570312c0 4.636719 3.757813 8.394532 8.390625 8.394532h33.574219v33.574218c0 4.636719 3.757812 8.394532 8.394531 8.394532h33.574219c4.636719 0 8.394531-3.757813 8.394531-8.394532v-33.574218h33.574219c4.632812 0 8.390625-3.757813 8.390625-8.394532v-33.570312c0-4.636719-3.757813-8.394531-8.390625-8.394531zm0 0" fill="#f44335" data-original="#f44335" style=""/>
    <path xmlns="http://www.w3.org/2000/svg" d="m495.195312 428.226562c0 37.082032-30.0625 67.144532-67.144531 67.144532-4.226562-.003906-8.441406-.394532-12.589843-1.171875-31.699219-6.011719-54.640626-33.710938-54.640626-65.972657 0-32.261718 22.941407-59.964843 54.640626-65.972656 4.148437-.777344 8.363281-1.171875 12.589843-1.175781 37.082031 0 67.144531 30.0625 67.144531 67.148437zm0 0" fill="#607d8b" data-original="#607d8b" style="" class=""/>
    <path xmlns="http://www.w3.org/2000/svg" d="m470.015625 428.226562c0-36.4375-24.425781-65.972656-54.554687-65.972656-30.132813 0-54.558594 29.535156-54.558594 65.972656 0 36.433594 24.425781 65.972657 54.558594 65.972657 30.128906 0 54.554687-29.539063 54.554687-65.972657zm0 0" fill="#cfd8dc" data-original="#cfd8dc" style="" class=""/>
    <path xmlns="http://www.w3.org/2000/svg" d="m461.625 428.226562c0 18.539063-15.035156 33.574219-33.574219 33.574219-18.542969 0-33.574219-15.035156-33.574219-33.574219 0-18.542968 15.03125-33.574218 33.574219-33.574218 18.539063 0 33.574219 15.03125 33.574219 33.574218zm0 0" fill="#37474f" data-original="#37474f" style=""/>
    <path xmlns="http://www.w3.org/2000/svg" d="m116.695312 64.269531-25.742187-11.820312c-1.113281-.507813-2.390625-.507813-3.503906.003906-1.109375.511719-1.945313 1.480469-2.28125 2.660156l-42.132813 147.117188c-4.683594 15.765625 2.933594 32.578125 17.875 39.449219l27.84375 12.800781c14.96875 6.851562 32.695313 1.640625 41.582032-12.21875l83.984374-133.0625c.671876-1.023438.863282-2.285157.527344-3.460938-.339844-1.175781-1.171875-2.148437-2.28125-2.660156l-26.484375-12.125 13.992188-30.519531 30.914062 14.175781c8.769531 4.058594 15.328125 11.75 17.945313 21.050781 2.632812 9.378906 1.101562 19.441406-4.195313 27.613282l-86.699219 137.226562c-17.777343 27.765625-53.289062 38.207031-83.269531 24.484375l-27.847656-12.769531c-29.960937-13.761719-45.222656-47.480469-35.78125-79.074219l43.476563-151.851563c2.742187-9.371093 9.378906-17.105468 18.222656-21.238281 8.765625-4.101562 18.890625-4.15625 27.699218-.140625l30.15625 13.824219" fill="#cfd8dc" data-original="#cfd8dc" style="" class=""/>
    <path xmlns="http://www.w3.org/2000/svg" d="m105.902344 22.386719 25.507812 11.695312c8.425782 3.867188 12.125 13.832031 8.261719 22.257813-3.863281 8.425781-13.828125 12.125-22.253906 8.261718l-25.507813-11.695312zm0 0" fill="#f44335" data-original="#f44335" style=""/>
    <path xmlns="http://www.w3.org/2000/svg" d="m200.078125 60.429688 25.179687 11.546874-13.992187 30.519532-25.179687-11.546875c-8.425782-3.863281-12.125-13.828125-8.261719-22.253907 3.863281-8.429687 13.828125-12.128906 22.253906-8.265624zm0 0" fill="#f44335" data-original="#f44335" style=""/>
    <path xmlns="http://www.w3.org/2000/svg" d="m268.574219 453.40625h-33.574219c-4.636719 0-8.394531 3.757812-8.394531 8.394531 0 4.632813 3.757812 8.390625 8.394531 8.390625h33.574219c4.636719 0 8.394531-3.757812 8.394531-8.390625 0-4.636719-3.757812-8.394531-8.394531-8.394531zm0 0" fill="#000000" data-original="#000000" style="" class=""/>
    <path xmlns="http://www.w3.org/2000/svg" d="m310.542969 293.929688h-25.183594v-25.179688c0-9.269531-7.515625-16.789062-16.785156-16.789062h-33.574219c-9.269531 0-16.785156 7.519531-16.785156 16.789062v25.179688h-25.183594c-9.269531 0-16.785156 7.515624-16.785156 16.789062v33.570312c0 9.273438 7.515625 16.789063 16.785156 16.789063h25.183594v25.179687c0 9.269532 7.515625 16.785157 16.785156 16.785157h33.574219c9.269531 0 16.785156-7.515625 16.785156-16.785157v-25.179687h25.183594c9.269531 0 16.785156-7.515625 16.785156-16.789063v-33.570312c0-9.273438-7.515625-16.789062-16.785156-16.789062zm0 50.359374h-33.574219c-4.636719 0-8.394531 3.757813-8.394531 8.394532v33.574218h-33.574219v-33.574218c0-4.636719-3.757812-8.394532-8.394531-8.394532h-33.574219v-33.570312h33.574219c4.636719 0 8.394531-3.757812 8.394531-8.394531v-33.574219h33.574219v33.574219c0 4.636719 3.757812 8.394531 8.394531 8.394531h33.574219zm0 0" fill="#000000" data-original="#000000" style="" class=""/>
    <path xmlns="http://www.w3.org/2000/svg" d="m469.589844 365.199219 33.488281-134.859375c3.613281-17.304688-.761719-35.316406-11.914063-49.035156-11.152343-13.714844-27.894531-21.675782-45.574218-21.667969h-42.722656v-117.511719c-.027344-23.164062-18.800782-41.9375-41.964844-41.964844h-218.230469c-11.773437 0-23.007813 4.949219-30.953125 13.640625-.382812.484375-.707031 1.015625-.964844 1.574219l-1.34375-.621094-5.398437-2.515625c-11.03125-5.035156-23.71875-4.976562-34.707031.160157-11.050782 5.171874-19.339844 14.855468-22.746094 26.574218l-43.496094 151.859375c-8.757812 29.703125 1.699219 61.730469 26.296875 80.535157l-25.042969 51.101562c-.492187 1.039062-.925781 2.101562-1.300781 3.1875-5.96875 17.921875-2.96875 37.617188 8.070313 52.945312 11.035156 15.328126 28.765624 24.421876 47.652343 24.441407h41.96875v58.757812c.027344 23.164063 18.800781 41.9375 41.964844 41.964844h218.230469c10.429687.027344 20.492187-3.867187 28.183594-10.910156 35.144531 20.824219 80.480468 9.898437 102.28125-24.652344 21.800781-34.546875 12.148437-80.171875-21.777344-102.929687zm-24-188.777344c12.574218-.007813 24.484375 5.628906 32.453125 15.351563 7.96875 9.722656 11.152343 22.507812 8.675781 34.832031l-32.507812 130.847656c-5.257813-1.953125-10.71875-3.3125-16.28125-4.046875l32.40625-130.5c1.378906-7.226562-.527344-14.6875-5.203126-20.363281-4.761718-5.917969-11.949218-9.351563-19.542968-9.335938h-42.722656v-16.785156zm-92.585938 243.410156h-235.511718v-122.132812c19.585937-4.175781 36.71875-15.949219 47.640624-32.734375l40.054688-63.363282h96.960938c4.636718 0 8.394531-3.757812 8.394531-8.394531 0-4.632812-3.757813-8.390625-8.394531-8.390625h-86.359376l15.945313-25.179687h53.625c4.636719 0 8.394531-3.757813 8.394531-8.394531 0-4.636719-3.757812-8.394532-8.394531-8.394532h-43.046875l9.476562-15.015625c6.613282-10.203125 8.511719-22.761719 5.210938-34.464843-3.230469-11.4375-11.230469-20.933594-21.957031-26.058594h151.039062v298.148437c-18.488281 12.375-30.589843 32.265625-33.078125 54.375zm-278.503906-125.945312c8.332031 3.394531 17.210938 5.242187 26.207031 5.449219v53.347656h-41.96875c-2.503906.003906-4.878906-1.113282-6.472656-3.042969-1.597656-1.929687-2.25-4.46875-1.777344-6.929687zm35.539062-260.363281 17.148438 7.863281.703125.328125c4.136719 1.976562 5.925781 6.902344 4.015625 11.070312-1.910156 4.167969-6.808594 6.035156-11.007812 4.191406l-4.632813-2.125-3.828125-1.761718-.140625-.050782-9.234375-4.246093zm-18.15625 28.605468 8.824219 4.046875v182.847657c-2.925781-.210938-5.789062-.949219-8.453125-2.171876l-27.84375-12.765624c-11.175781-5.160157-16.847656-17.757813-13.300781-29.546876zm25.609376 11.296875c2.238281.695313 4.5625 1.070313 6.90625 1.109375 6.589843.003906 12.917968-2.59375 17.601562-7.226562h27.472656c-4.363281 12.246094 1.320313 25.800781 13.109375 31.28125l22.117188 10.128906-81.390625 128.976562c-1.574219 2.394532-3.542969 4.507813-5.816406 6.25zm96.640624 2.6875-6.992187 15.25-12.175781-5.589843-5.382813-2.46875c-3.546875-1.65625-5.476562-5.546876-4.652343-9.375.824218-3.828126 4.1875-6.574219 8.101562-6.621094h.050781c1.199219 0 2.378907.257812 3.46875.753906zm188.734376 133.882813h42.722656c2.519531-.007813 4.90625 1.132812 6.480468 3.097656 1.441407 1.664062 2.128907 3.851562 1.90625 6.042969l-33.253906 133.917969c-6.09375.613281-12.089844 1.96875-17.855468 4.035156zm-260.195313-193.050782h218.230469c13.90625 0 25.179687 11.273438 25.179687 25.179688v8.394531h-236.527343c.484374-10.261719-5.3125-19.785156-14.644532-24.070312l-8.109375-3.71875c4.449219-3.730469 10.066407-5.777344 15.871094-5.785157zm-123.46875 178.511719 43.464844-151.761719c2.050781-7.0625 7.039062-12.902343 13.695312-16.03125 5.753907-2.652343 12.3125-2.972656 18.296875-.898437l-7.878906 17.164063c-.976562.179687-1.925781.476562-2.828125.882812-3.34375 1.53125-5.847656 4.449219-6.859375 7.980469l-42.117188 147.128906c-5.890624 19.769531 3.679688 40.855469 22.433594 49.4375l27.84375 12.769531c18.789063 8.65625 41.085938 2.085938 52.179688-15.378906l83.9375-132.925781c2.011718-3.082031 2.578125-6.890625 1.542968-10.425781-.332031-1.082032-.808593-2.117188-1.417968-3.070313l7.804687-17.015625c5.628907 3.167969 9.789063 8.421875 11.574219 14.628906 1.988281 7.089844.816406 14.691406-3.214844 20.851563l-86.644531 137.097656c-15.523437 24.265625-46.535156 33.417969-72.746094 21.460937l-27.839843-12.796874c-26.132813-12.074219-39.433594-41.503907-31.226563-69.097657zm39.535156 190.800781c-13.523437-.007812-26.214843-6.535156-34.09375-17.527343-7.875-10.996094-9.96875-25.113281-5.625-37.917969l24.828125-50.773438 15.300782 7.015626-24.140626 49.085937c-.234374.480469-.425781.984375-.570312 1.503906-2.007812 7.335938-.582031 15.191407 3.878906 21.351563 4.6875 6.617187 12.3125 10.527344 20.421875 10.476562h41.96875v16.785156zm302.164063 100.722657h-218.230469c-13.90625 0-25.179687-11.273438-25.179687-25.179688v-25.183593h235.511718c1.945313 17.339843 9.84375 33.464843 22.351563 45.628906-4.203125 3.050781-9.257813 4.703125-14.453125 4.734375zm67.148437 0c-31.652343-.039063-57.585937-25.140625-58.65625-56.773438.542969-1.265625.542969-2.699219 0-3.960937 1.085938-32.183594 27.875-57.496094 60.066407-56.757813 32.191406.734375 57.792968 27.246094 57.40625 59.441407-.386719 32.199218-26.617188 58.085937-58.816407 58.050781zm0 0" fill="#000000" data-original="#000000" style="" class=""/>
    <path xmlns="http://www.w3.org/2000/svg" d="m428.050781 386.257812c-23.179687 0-41.96875 18.789063-41.96875 41.96875 0 23.175782 18.789063 41.964844 41.96875 41.964844 23.175781 0 41.964844-18.789062 41.964844-41.964844-.027344-23.167968-18.800781-41.941406-41.964844-41.96875zm0 67.148438c-13.90625 0-25.183593-11.273438-25.183593-25.179688s11.277343-25.183593 25.183593-25.183593 25.179688 11.277343 25.179688 25.183593-11.273438 25.179688-25.179688 25.179688zm0 0" fill="#000000" data-original="#000000" style="" class=""/>
    <path xmlns="http://www.w3.org/2000/svg" d="m327.328125 142.847656h-8.394531c-4.632813 0-8.390625 3.757813-8.390625 8.394532 0 4.636718 3.757812 8.394531 8.390625 8.394531h8.394531c4.636719 0 8.394531-3.757813 8.394531-8.394531 0-4.636719-3.757812-8.394532-8.394531-8.394532zm0 0" fill="#000000" data-original="#000000" style="" class=""/>
  </g>
</svg>
